<svg id="Layer_1" data-name="Layer 1" xmlns="http://www.w3.org/2000/svg" viewBox="0 0 84 84"><defs><style>.cls-1{fill:#fff;stroke:#981918;stroke-miterlimit:10;}</style></defs><title>Artboard 15100</title><rect class="cls-1" x="2.58" y="20.37" width="59.16" height="35.27"/><path class="cls-1" d="M2.58,20.37H61.74a9.11,9.11,0,0,1-9.1,9.11h-41a9.1,9.1,0,0,1-9.1-9.11"/><rect class="cls-1" x="12.96" y="27.06" width="59.16" height="35.27"/><path class="cls-1" d="M13,27.06H72.12a9.11,9.11,0,0,1-9.1,9.1h-41A9.1,9.1,0,0,1,13,27.06Z"/><rect class="cls-1" x="23.34" y="33.74" width="59.16" height="35.27"/><path class="cls-1" d="M23.34,33.74H82.5a9.09,9.09,0,0,1-9.1,9.1h-41A9.1,9.1,0,0,1,23.34,33.74Z"/></svg>