<svg id="Layer_1" data-name="Layer 1" xmlns="http://www.w3.org/2000/svg" viewBox="0 0 84 84"><defs><style>.cls-1,.cls-2{fill:#fff;}.cls-1,.cls-2,.cls-3{stroke:#981918;stroke-miterlimit:10;}.cls-2{stroke-width:0.75px;}.cls-3{fill:none;}</style></defs><title>Artboard 16100</title><polygon class="cls-1" points="60.5 53.32 54.18 49.24 47.87 53.32 47.87 41.09 60.5 41.09 60.5 53.32"/><line class="cls-1" x1="22.4" y1="15.61" x2="47.59" y2="40.81"/><line class="cls-1" x1="33.19" y1="41.53" x2="8" y2="16.33"/><polygon class="cls-2" points="8 49.44 33.19 74.64 34.63 74.64 72.06 74.64 73.5 74.64 73.5 40.09 73.5 40.81 48.31 15.61 46.87 15.61 9.44 15.61 8 15.61 8 50.16 8 49.44"/><line class="cls-1" x1="73.78" y1="41.09" x2="33.47" y2="41.09"/><line class="cls-1" x1="33" y1="40.61" x2="33.47" y2="74.64"/><line class="cls-1" x1="35.35" y1="15.61" x2="60.54" y2="40.81"/><polygon class="cls-3" points="60.5 53.32 54.18 49.24 47.87 53.32 47.87 41.09 60.5 41.09 60.5 53.32"/><line class="cls-3" x1="22.4" y1="15.61" x2="47.59" y2="40.81"/><line class="cls-3" x1="33.19" y1="41.53" x2="8" y2="16.33"/><polygon class="cls-3" points="8 49.44 33.19 74.64 34.63 74.64 72.06 74.64 73.5 74.64 73.5 40.09 73.5 40.81 48.31 15.61 46.87 15.61 9.44 15.61 8 15.61 8 50.16 8 49.44"/><line class="cls-3" x1="73.78" y1="41.09" x2="33.47" y2="41.09"/><line class="cls-3" x1="33" y1="40.61" x2="33.47" y2="74.64"/><line class="cls-3" x1="35.35" y1="15.61" x2="60.54" y2="40.81"/></svg>