<svg id="Layer_1" data-name="Layer 1" xmlns="http://www.w3.org/2000/svg" viewBox="0 0 1379 313"><defs><style>.cls-1{opacity:0.4;}.cls-2,.cls-4{fill:#fff;}.cls-2,.cls-3{stroke:#981918;stroke-miterlimit:10;}.cls-3{fill:none;}.cls-5{fill:#981918;}</style></defs><title>Artboard 6100</title><g class="cls-1"><polygon class="cls-2" points="1041.34 216.15 1042.97 192.24 1092.27 170.25 1090.61 187.07 1041.34 216.15"/><polygon class="cls-2" points="1050.09 199.3 1078.1 185.93 1073.69 202.1 1041.34 216.15 1050.09 199.3"/><polygon class="cls-2" points="1050.09 199.3 1099.04 175.94 1099.75 201.15 1050.9 224.7 1050.09 199.3"/><polygon class="cls-2" points="1238.2 222.09 1209.85 200.12 1245.82 173.79 1267.74 186.53 1238.2 222.09"/><polygon class="cls-2" points="1073.32 305 1044.97 283.02 1080.94 256.7 1102.87 269.43 1073.32 305"/><polygon class="cls-2" points="1072.41 298.58 1103.31 261.47 1075.95 250.07 1044.97 283.02 1072.41 298.58"/><polygon class="cls-2" points="1119.11 275.08 1119.11 278.01 1154.47 302.02 1166.65 292.6 1125.16 271.35 1119.11 275.08"/><polygon class="cls-2" points="1166.65 292.6 1153.45 300.45 1120.91 271.24 1129.29 267.18 1166.65 292.6"/><polygon class="cls-2" points="1165.24 293.19 1152.94 298.52 1126.43 267.03 1142.25 261.41 1165.24 293.19"/><polygon class="cls-2" points="1167.65 292.6 1151.2 297.33 1131.47 262.98 1156.92 257.37 1167.65 292.6"/><polygon class="cls-2" points="1169.47 291.88 1150.77 295.78 1137.52 260.25 1144.69 259.15 1169.47 291.88"/><polygon class="cls-2" points="1167.6 292.26 1151.35 294.33 1143.73 257.17 1170.79 254.16 1167.6 292.26"/><polygon class="cls-2" points="1170.73 291.85 1151.33 292.4 1150.33 255.23 1157.71 255.23 1170.73 291.85"/><polygon class="cls-2" points="1177.53 292.3 1151.73 290.57 1156.7 254.11 1173.48 254.4 1177.53 292.3"/><polygon class="cls-2" points="1178.69 292.3 1151.72 289.25 1163.34 252.66 1188.82 256.29 1178.69 292.3"/><polygon class="cls-2" points="1180.43 293.61 1152.36 287.24 1168.84 252.78 1195.47 258.45 1180.43 293.61"/><rect class="cls-2" x="1289.65" y="254.04" width="56.09" height="33.44"/><path class="cls-2" d="M1289.65,254h56.09a8.63,8.63,0,0,1-8.63,8.63h-38.83a8.63,8.63,0,0,1-8.63-8.63"/><rect class="cls-2" x="1299.49" y="260.38" width="56.09" height="33.44"/><path class="cls-2" d="M1299.49,260.38h56.09A8.63,8.63,0,0,1,1347,269h-38.83A8.63,8.63,0,0,1,1299.49,260.38Z"/><rect class="cls-2" x="1309.33" y="266.71" width="56.09" height="33.44"/><path class="cls-2" d="M1309.33,266.71h56.09a8.63,8.63,0,0,1-8.63,8.63H1318A8.63,8.63,0,0,1,1309.33,266.71Z"/><path class="cls-2" d="M1208.56,256a13,13,0,0,1,26.07,0h0v.43h38.81V303h-52.71a12.24,12.24,0,0,1-12.22-12.27V256Z"/><line class="cls-2" x1="1234.65" y1="256.01" x2="1234.65" y2="289.84"/><path class="cls-2" d="M1208.53,289.41a13.05,13.05,0,1,1,26.1-.42"/><rect class="cls-3" x="1238.81" y="261.49" width="27.95" height="12.11"/><rect class="cls-3" x="1255.58" y="278.26" width="10.25" height="16.77"/><rect class="cls-3" x="1238.81" y="278.26" width="13.04" height="16.77"/><rect class="cls-4" x="1262.56" y="286.18" width="5.59" height="2.79"/><rect class="cls-4" x="1263.49" y="266.62" width="5.59" height="2.79"/><rect class="cls-4" x="1244.86" y="292.7" width="3.73" height="3.73"/><rect class="cls-4" x="1244.86" y="271.27" width="3.73" height="3.73"/><rect class="cls-4" x="1257.9" y="271.27" width="1.86" height="4.66"/><rect class="cls-3" x="1255.58" y="278.26" width="10.25" height="16.77"/><polygon class="cls-2" points="1316.77 218.75 1298.55 221.72 1301.52 203.5 1316.77 218.75"/><rect class="cls-2" x="1303.64" y="187.27" width="37.15" height="21.55" transform="translate(247.23 992.96) rotate(-45)"/><path class="cls-2" d="M1344.32,190.92l-15-15,.44-.44a10.59,10.59,0,0,1,15,15Z"/><rect class="cls-2" x="1334.58" y="172.34" width="5.26" height="21.43" transform="translate(262.22 999.17) rotate(-45)"/><line class="cls-2" x1="1332.47" y1="181.79" x2="1306.21" y2="208.06"/><line class="cls-2" x1="1338.67" y1="187.99" x2="1312.4" y2="214.25"/><line class="cls-2" x1="1329.28" y1="175.87" x2="1344.4" y2="190.99"/><polygon class="cls-4" points="1305.77 220.72 1298.55 221.9 1299.73 214.68 1305.77 220.72"/><polygon class="cls-3" points="1316.77 218.75 1298.55 221.72 1301.52 203.5 1316.77 218.75"/><rect class="cls-3" x="1303.64" y="187.27" width="37.15" height="21.55" transform="translate(247.23 992.96) rotate(-45)"/><path class="cls-3" d="M1344.32,190.92l-15-15,.44-.44a10.59,10.59,0,0,1,15,15Z"/><rect class="cls-3" x="1334.58" y="172.34" width="5.26" height="21.43" transform="translate(262.22 999.17) rotate(-45)"/><line class="cls-3" x1="1332.47" y1="181.79" x2="1306.21" y2="208.06"/><line class="cls-3" x1="1338.67" y1="187.99" x2="1312.4" y2="214.25"/><line class="cls-3" x1="1329.28" y1="175.87" x2="1344.4" y2="190.99"/><polygon class="cls-5" points="1305.77 220.72 1298.55 221.9 1299.73 214.68 1305.77 220.72"/><path class="cls-4" d="M1177.64,196.41A25.62,25.62,0,1,1,1152,170.79c1.61,0-.34-.37,1,.44,5.21,3.17,14.53,14.34,24.36,23.32C1178.28,195.38,1177.64,195.14,1177.64,196.41Z"/><path class="cls-3" d="M1177.5,196.41A25.47,25.47,0,1,1,1152,170.94c7.66,0,3.44,11.63,8.11,17,3.9,4.47,17.36,2.08,17.36,8.49"/><line class="cls-3" x1="1155.19" y1="172.02" x2="1176.62" y2="194.01"/><polygon class="cls-2" points="1041.34 62.45 1042.97 38.54 1092.27 16.55 1090.61 33.37 1041.34 62.45"/><polygon class="cls-2" points="1050.09 45.6 1078.1 32.23 1073.69 48.4 1041.34 62.45 1050.09 45.6"/><polygon class="cls-2" points="1050.09 45.6 1099.04 22.24 1099.75 47.45 1050.9 71 1050.09 45.6"/><polygon class="cls-2" points="1238.2 68.39 1209.85 46.42 1245.82 20.09 1267.74 32.83 1238.2 68.39"/><polygon class="cls-2" points="1073.32 151.3 1044.97 129.32 1080.94 103 1102.87 115.73 1073.32 151.3"/><polygon class="cls-2" points="1072.41 144.88 1103.31 107.77 1075.95 96.38 1044.97 129.32 1072.41 144.88"/><polygon class="cls-2" points="1119.11 121.38 1119.11 124.31 1154.47 148.32 1166.65 138.9 1125.16 117.65 1119.11 121.38"/><polygon class="cls-2" points="1166.65 138.9 1153.45 146.75 1120.91 117.54 1129.29 113.48 1166.65 138.9"/><polygon class="cls-2" points="1165.24 139.49 1152.94 144.82 1126.43 113.33 1142.25 107.71 1165.24 139.49"/><polygon class="cls-2" points="1167.65 138.9 1151.2 143.63 1131.47 109.28 1156.92 103.66 1167.65 138.9"/><polygon class="cls-2" points="1169.47 138.18 1150.77 142.08 1137.52 106.55 1144.69 105.45 1169.47 138.18"/><polygon class="cls-2" points="1167.6 138.56 1151.35 140.63 1143.73 103.47 1170.79 100.46 1167.6 138.56"/><polygon class="cls-2" points="1170.73 138.15 1151.33 138.69 1150.33 101.53 1157.71 101.53 1170.73 138.15"/><polygon class="cls-2" points="1177.53 138.6 1151.73 136.87 1156.7 100.41 1173.48 100.7 1177.53 138.6"/><polygon class="cls-2" points="1178.69 138.6 1151.72 135.55 1163.34 98.95 1188.82 102.58 1178.69 138.6"/><polygon class="cls-2" points="1180.43 139.91 1152.36 133.54 1168.84 99.08 1195.47 104.75 1180.43 139.91"/><rect class="cls-2" x="1289.65" y="100.34" width="56.09" height="33.44"/><path class="cls-2" d="M1289.65,100.34h56.09a8.63,8.63,0,0,1-8.63,8.63h-38.83a8.63,8.63,0,0,1-8.63-8.63"/><rect class="cls-2" x="1299.49" y="106.68" width="56.09" height="33.44"/><path class="cls-2" d="M1299.49,106.68h56.09a8.63,8.63,0,0,1-8.63,8.63h-38.83A8.63,8.63,0,0,1,1299.49,106.68Z"/><rect class="cls-2" x="1309.33" y="113.01" width="56.09" height="33.44"/><path class="cls-2" d="M1309.33,113h56.09a8.63,8.63,0,0,1-8.63,8.63H1318A8.63,8.63,0,0,1,1309.33,113Z"/><path class="cls-2" d="M1208.56,102.31a13,13,0,0,1,26.07,0h0v.42h38.81v46.51h-52.71A12.24,12.24,0,0,1,1208.53,137V102.31Z"/><line class="cls-2" x1="1234.65" y1="102.31" x2="1234.65" y2="136.14"/><path class="cls-2" d="M1208.53,135.71a13.05,13.05,0,1,1,26.1-.42"/><rect class="cls-3" x="1238.81" y="107.79" width="27.95" height="12.11"/><rect class="cls-3" x="1255.58" y="124.56" width="10.25" height="16.77"/><rect class="cls-3" x="1238.81" y="124.56" width="13.04" height="16.77"/><rect class="cls-4" x="1262.56" y="132.48" width="5.59" height="2.79"/><rect class="cls-4" x="1263.49" y="112.92" width="5.59" height="2.79"/><rect class="cls-4" x="1244.86" y="139" width="3.73" height="3.73"/><rect class="cls-4" x="1244.86" y="117.57" width="3.73" height="3.73"/><rect class="cls-4" x="1257.9" y="117.57" width="1.86" height="4.66"/><rect class="cls-3" x="1255.58" y="124.56" width="10.25" height="16.77"/><polygon class="cls-2" points="1316.77 65.05 1298.55 68.02 1301.52 49.8 1316.77 65.05"/><rect class="cls-2" x="1303.64" y="33.57" width="37.15" height="21.55" transform="translate(355.91 947.94) rotate(-45)"/><path class="cls-2" d="M1344.32,37.22l-15-15,.44-.44a10.59,10.59,0,0,1,15,15Z"/><rect class="cls-2" x="1334.58" y="18.64" width="5.26" height="21.43" transform="translate(370.9 954.15) rotate(-45)"/><line class="cls-2" x1="1332.47" y1="28.09" x2="1306.21" y2="54.36"/><line class="cls-2" x1="1338.67" y1="34.29" x2="1312.4" y2="60.55"/><line class="cls-2" x1="1329.28" y1="22.17" x2="1344.4" y2="37.29"/><polygon class="cls-4" points="1305.77 67.02 1298.55 68.2 1299.73 60.98 1305.77 67.02"/><polygon class="cls-3" points="1316.77 65.05 1298.55 68.02 1301.52 49.8 1316.77 65.05"/><rect class="cls-3" x="1303.64" y="33.57" width="37.15" height="21.55" transform="translate(355.91 947.94) rotate(-45)"/><path class="cls-3" d="M1344.32,37.22l-15-15,.44-.44a10.59,10.59,0,0,1,15,15Z"/><rect class="cls-3" x="1334.58" y="18.64" width="5.26" height="21.43" transform="translate(370.9 954.15) rotate(-45)"/><line class="cls-3" x1="1332.47" y1="28.09" x2="1306.21" y2="54.36"/><line class="cls-3" x1="1338.67" y1="34.29" x2="1312.4" y2="60.55"/><line class="cls-3" x1="1329.28" y1="22.17" x2="1344.4" y2="37.29"/><polygon class="cls-5" points="1305.77 67.02 1298.55 68.2 1299.73 60.98 1305.77 67.02"/><path class="cls-4" d="M1177.64,42.71A25.62,25.62,0,1,1,1152,17.09c1.61,0-.34-.37,1,.44,5.21,3.17,14.53,14.34,24.36,23.32C1178.28,41.68,1177.64,41.44,1177.64,42.71Z"/><path class="cls-3" d="M1177.5,42.71A25.47,25.47,0,1,1,1152,17.24c7.66,0,3.44,11.63,8.11,17,3.9,4.47,17.36,2.08,17.36,8.49"/><line class="cls-3" x1="1155.19" y1="18.32" x2="1176.62" y2="40.31"/></g><g class="cls-1"><polygon class="cls-2" points="700.4 216.15 702.03 192.24 751.34 170.25 749.67 187.07 700.4 216.15"/><polygon class="cls-2" points="709.16 199.3 737.17 185.93 732.75 202.1 700.4 216.15 709.16 199.3"/><polygon class="cls-2" points="709.16 199.3 758.11 175.94 758.81 201.15 709.97 224.7 709.16 199.3"/><polygon class="cls-2" points="897.26 222.09 868.92 200.12 904.89 173.79 926.81 186.53 897.26 222.09"/><polygon class="cls-2" points="732.39 305 704.04 283.02 740.01 256.7 761.93 269.43 732.39 305"/><polygon class="cls-2" points="731.48 298.58 762.37 261.47 735.02 250.07 704.04 283.02 731.48 298.58"/><polygon class="cls-2" points="778.17 275.08 778.17 278.01 813.54 302.02 825.72 292.6 784.22 271.35 778.17 275.08"/><polygon class="cls-2" points="825.72 292.6 812.52 300.45 779.98 271.24 788.36 267.18 825.72 292.6"/><polygon class="cls-2" points="824.31 293.19 812 298.52 785.5 267.03 801.31 261.41 824.31 293.19"/><polygon class="cls-2" points="826.72 292.6 810.26 297.33 790.54 262.98 815.98 257.37 826.72 292.6"/><polygon class="cls-2" points="828.53 291.88 809.84 295.78 796.59 260.25 803.76 259.15 828.53 291.88"/><polygon class="cls-2" points="826.66 292.26 810.41 294.33 802.79 257.17 829.86 254.16 826.66 292.26"/><polygon class="cls-2" points="829.79 291.85 810.4 292.4 809.39 255.23 816.78 255.23 829.79 291.85"/><polygon class="cls-2" points="836.6 292.3 810.79 290.57 815.77 254.11 832.55 254.4 836.6 292.3"/><polygon class="cls-2" points="837.76 292.3 810.79 289.25 822.4 252.66 847.89 256.29 837.76 292.3"/><polygon class="cls-2" points="839.49 293.61 811.43 287.24 827.91 252.78 854.54 258.45 839.49 293.61"/><rect class="cls-2" x="948.71" y="254.04" width="56.09" height="33.44"/><path class="cls-2" d="M948.71,254h56.09a8.63,8.63,0,0,1-8.63,8.63H957.34a8.63,8.63,0,0,1-8.63-8.63"/><rect class="cls-2" x="958.56" y="260.38" width="56.09" height="33.44"/><path class="cls-2" d="M958.56,260.38h56.08A8.63,8.63,0,0,1,1006,269H967.19A8.63,8.63,0,0,1,958.56,260.38Z"/><rect class="cls-2" x="968.4" y="266.71" width="56.09" height="33.44"/><path class="cls-2" d="M968.4,266.71h56.09a8.63,8.63,0,0,1-8.63,8.63H977A8.63,8.63,0,0,1,968.4,266.71Z"/><path class="cls-2" d="M867.62,256a13,13,0,0,1,26.07,0h0v.43h38.81V303H879.81a12.24,12.24,0,0,1-12.21-12.27V256Z"/><line class="cls-2" x1="893.71" y1="256.01" x2="893.71" y2="289.84"/><path class="cls-2" d="M867.6,289.41a13,13,0,1,1,26.09-.42"/><rect class="cls-3" x="897.87" y="261.49" width="27.95" height="12.11"/><rect class="cls-3" x="914.64" y="278.26" width="10.25" height="16.77"/><rect class="cls-3" x="897.87" y="278.26" width="13.04" height="16.77"/><rect class="cls-4" x="921.63" y="286.18" width="5.59" height="2.79"/><rect class="cls-4" x="922.56" y="266.62" width="5.59" height="2.79"/><rect class="cls-4" x="903.93" y="292.7" width="3.73" height="3.73"/><rect class="cls-4" x="903.93" y="271.27" width="3.73" height="3.73"/><rect class="cls-4" x="916.97" y="271.27" width="1.86" height="4.66"/><rect class="cls-3" x="914.64" y="278.26" width="10.25" height="16.77"/><polygon class="cls-2" points="975.83 218.75 957.62 221.72 960.59 203.5 975.83 218.75"/><rect class="cls-2" x="962.71" y="187.27" width="37.15" height="21.55" transform="translate(147.37 751.88) rotate(-45)"/><path class="cls-2" d="M1003.39,190.92l-15-15,.44-.44a10.59,10.59,0,0,1,15,15Z"/><rect class="cls-2" x="993.65" y="172.34" width="5.26" height="21.43" transform="translate(162.36 758.09) rotate(-45)"/><line class="cls-2" x1="991.54" y1="181.79" x2="965.27" y2="208.06"/><line class="cls-2" x1="997.73" y1="187.99" x2="971.47" y2="214.25"/><line class="cls-2" x1="988.34" y1="175.87" x2="1003.46" y2="190.99"/><polygon class="cls-4" points="964.84 220.72 957.62 221.9 958.79 214.68 964.84 220.72"/><polygon class="cls-3" points="975.83 218.75 957.62 221.72 960.59 203.5 975.83 218.75"/><rect class="cls-3" x="962.71" y="187.27" width="37.15" height="21.55" transform="translate(147.37 751.88) rotate(-45)"/><path class="cls-3" d="M1003.39,190.92l-15-15,.44-.44a10.59,10.59,0,0,1,15,15Z"/><rect class="cls-3" x="993.65" y="172.34" width="5.26" height="21.43" transform="translate(162.36 758.09) rotate(-45)"/><line class="cls-3" x1="991.54" y1="181.79" x2="965.27" y2="208.06"/><line class="cls-3" x1="997.73" y1="187.99" x2="971.47" y2="214.25"/><line class="cls-3" x1="988.34" y1="175.87" x2="1003.46" y2="190.99"/><polygon class="cls-5" points="964.84 220.72 957.62 221.9 958.79 214.68 964.84 220.72"/><path class="cls-4" d="M836.71,196.41a25.62,25.62,0,1,1-25.62-25.62c1.62,0-.33-.37,1,.44,5.21,3.17,14.52,14.34,24.35,23.32C837.35,195.38,836.71,195.14,836.71,196.41Z"/><path class="cls-3" d="M836.56,196.41a25.47,25.47,0,1,1-25.47-25.47c7.66,0,3.44,11.63,8.11,17,3.9,4.47,17.36,2.08,17.36,8.49"/><line class="cls-3" x1="814.26" y1="172.02" x2="835.68" y2="194.01"/><polygon class="cls-2" points="700.4 62.45 702.03 38.54 751.34 16.55 749.67 33.37 700.4 62.45"/><polygon class="cls-2" points="709.16 45.6 737.17 32.23 732.75 48.4 700.4 62.45 709.16 45.6"/><polygon class="cls-2" points="709.16 45.6 758.11 22.24 758.81 47.45 709.97 71 709.16 45.6"/><polygon class="cls-2" points="897.26 68.39 868.92 46.42 904.89 20.09 926.81 32.83 897.26 68.39"/><polygon class="cls-2" points="732.39 151.3 704.04 129.32 740.01 103 761.93 115.73 732.39 151.3"/><polygon class="cls-2" points="731.48 144.88 762.37 107.77 735.02 96.38 704.04 129.32 731.48 144.88"/><polygon class="cls-2" points="778.17 121.38 778.17 124.31 813.54 148.32 825.72 138.9 784.22 117.65 778.17 121.38"/><polygon class="cls-2" points="825.72 138.9 812.52 146.75 779.98 117.54 788.36 113.48 825.72 138.9"/><polygon class="cls-2" points="824.31 139.49 812 144.82 785.5 113.33 801.31 107.71 824.31 139.49"/><polygon class="cls-2" points="826.72 138.9 810.26 143.63 790.54 109.28 815.98 103.66 826.72 138.9"/><polygon class="cls-2" points="828.53 138.18 809.84 142.08 796.59 106.55 803.76 105.45 828.53 138.18"/><polygon class="cls-2" points="826.66 138.56 810.41 140.63 802.79 103.47 829.86 100.46 826.66 138.56"/><polygon class="cls-2" points="829.79 138.15 810.4 138.69 809.39 101.53 816.78 101.53 829.79 138.15"/><polygon class="cls-2" points="836.6 138.6 810.79 136.87 815.77 100.41 832.55 100.7 836.6 138.6"/><polygon class="cls-2" points="837.76 138.6 810.79 135.55 822.4 98.95 847.89 102.58 837.76 138.6"/><polygon class="cls-2" points="839.49 139.91 811.43 133.54 827.91 99.08 854.54 104.75 839.49 139.91"/><rect class="cls-2" x="948.71" y="100.34" width="56.09" height="33.44"/><path class="cls-2" d="M948.71,100.34h56.09a8.63,8.63,0,0,1-8.63,8.63H957.34a8.63,8.63,0,0,1-8.63-8.63"/><rect class="cls-2" x="958.56" y="106.68" width="56.09" height="33.44"/><path class="cls-2" d="M958.56,106.68h56.08a8.63,8.63,0,0,1-8.63,8.63H967.19A8.63,8.63,0,0,1,958.56,106.68Z"/><rect class="cls-2" x="968.4" y="113.01" width="56.09" height="33.44"/><path class="cls-2" d="M968.4,113h56.09a8.63,8.63,0,0,1-8.63,8.63H977A8.63,8.63,0,0,1,968.4,113Z"/><path class="cls-2" d="M867.62,102.31a13,13,0,0,1,26.07,0h0v.42h38.81v46.51H879.81A12.24,12.24,0,0,1,867.6,137V102.31Z"/><line class="cls-2" x1="893.71" y1="102.31" x2="893.71" y2="136.14"/><path class="cls-2" d="M867.6,135.71a13,13,0,1,1,26.09-.42"/><rect class="cls-3" x="897.87" y="107.79" width="27.95" height="12.11"/><rect class="cls-3" x="914.64" y="124.56" width="10.25" height="16.77"/><rect class="cls-3" x="897.87" y="124.56" width="13.04" height="16.77"/><rect class="cls-4" x="921.63" y="132.48" width="5.59" height="2.79"/><rect class="cls-4" x="922.56" y="112.92" width="5.59" height="2.79"/><rect class="cls-4" x="903.93" y="139" width="3.73" height="3.73"/><rect class="cls-4" x="903.93" y="117.57" width="3.73" height="3.73"/><rect class="cls-4" x="916.97" y="117.57" width="1.86" height="4.66"/><rect class="cls-3" x="914.64" y="124.56" width="10.25" height="16.77"/><polygon class="cls-2" points="975.83 65.05 957.62 68.02 960.59 49.8 975.83 65.05"/><rect class="cls-2" x="962.71" y="33.57" width="37.15" height="21.55" transform="translate(256.05 706.86) rotate(-45)"/><path class="cls-2" d="M1003.39,37.22l-15-15,.44-.44a10.59,10.59,0,0,1,15,15Z"/><rect class="cls-2" x="993.65" y="18.64" width="5.26" height="21.43" transform="translate(271.05 713.07) rotate(-45)"/><line class="cls-2" x1="991.54" y1="28.09" x2="965.27" y2="54.36"/><line class="cls-2" x1="997.73" y1="34.29" x2="971.47" y2="60.55"/><line class="cls-2" x1="988.34" y1="22.17" x2="1003.46" y2="37.29"/><polygon class="cls-4" points="964.84 67.02 957.62 68.2 958.79 60.98 964.84 67.02"/><polygon class="cls-3" points="975.83 65.05 957.62 68.02 960.59 49.8 975.83 65.05"/><rect class="cls-3" x="962.71" y="33.57" width="37.15" height="21.55" transform="translate(256.05 706.86) rotate(-45)"/><path class="cls-3" d="M1003.39,37.22l-15-15,.44-.44a10.59,10.59,0,0,1,15,15Z"/><rect class="cls-3" x="993.65" y="18.64" width="5.26" height="21.43" transform="translate(271.05 713.07) rotate(-45)"/><line class="cls-3" x1="991.54" y1="28.09" x2="965.27" y2="54.36"/><line class="cls-3" x1="997.73" y1="34.29" x2="971.47" y2="60.55"/><line class="cls-3" x1="988.34" y1="22.17" x2="1003.46" y2="37.29"/><polygon class="cls-5" points="964.84 67.02 957.62 68.2 958.79 60.98 964.84 67.02"/><path class="cls-4" d="M836.71,42.71a25.62,25.62,0,1,1-25.62-25.62c1.62,0-.33-.37,1,.44,5.21,3.17,14.52,14.34,24.35,23.32C837.35,41.68,836.71,41.44,836.71,42.71Z"/><path class="cls-3" d="M836.56,42.71a25.47,25.47,0,1,1-25.47-25.47c7.66,0,3.44,11.63,8.11,17,3.9,4.47,17.36,2.08,17.36,8.49"/><line class="cls-3" x1="814.26" y1="18.32" x2="835.68" y2="40.31"/></g><g class="cls-1"><polygon class="cls-2" points="358.53 216.15 360.17 192.24 409.47 170.25 407.81 187.07 358.53 216.15"/><polygon class="cls-2" points="367.29 199.3 395.3 185.93 390.89 202.1 358.54 216.15 367.29 199.3"/><polygon class="cls-2" points="367.29 199.3 416.24 175.94 416.94 201.15 368.1 224.7 367.29 199.3"/><polygon class="cls-2" points="555.4 222.09 527.05 200.12 563.02 173.79 584.94 186.53 555.4 222.09"/><polygon class="cls-2" points="390.52 305 362.17 283.02 398.14 256.7 420.06 269.43 390.52 305"/><polygon class="cls-2" points="389.61 298.58 420.5 261.47 393.15 250.07 362.17 283.02 389.61 298.58"/><polygon class="cls-2" points="436.31 275.08 436.31 278.01 471.67 302.02 483.85 292.6 442.36 271.35 436.31 275.08"/><polygon class="cls-2" points="483.85 292.6 470.65 300.45 438.11 271.24 446.49 267.18 483.85 292.6"/><polygon class="cls-2" points="482.44 293.19 470.14 298.52 443.63 267.03 459.45 261.41 482.44 293.19"/><polygon class="cls-2" points="484.85 292.6 468.39 297.33 448.67 262.98 474.12 257.37 484.85 292.6"/><polygon class="cls-2" points="486.66 291.88 467.97 295.78 454.72 260.25 461.89 259.15 486.66 291.88"/><polygon class="cls-2" points="484.79 292.26 468.55 294.33 460.92 257.17 487.99 254.16 484.79 292.26"/><polygon class="cls-2" points="487.93 291.85 468.53 292.4 467.53 255.23 474.91 255.23 487.93 291.85"/><polygon class="cls-2" points="494.73 292.3 468.92 290.57 473.9 254.11 490.68 254.4 494.73 292.3"/><polygon class="cls-2" points="495.89 292.3 468.92 289.25 480.54 252.66 506.02 256.29 495.89 292.3"/><polygon class="cls-2" points="497.63 293.61 469.56 287.24 486.04 252.78 512.67 258.45 497.63 293.61"/><rect class="cls-2" x="606.85" y="254.04" width="56.09" height="33.44"/><path class="cls-2" d="M606.85,254h56.08a8.62,8.62,0,0,1-8.62,8.63H615.48a8.63,8.63,0,0,1-8.63-8.63"/><rect class="cls-2" x="616.69" y="260.38" width="56.09" height="33.44"/><path class="cls-2" d="M616.69,260.38h56.09a8.64,8.64,0,0,1-8.63,8.63H625.32A8.63,8.63,0,0,1,616.69,260.38Z"/><rect class="cls-2" x="626.53" y="266.71" width="56.09" height="33.44"/><path class="cls-2" d="M626.53,266.71h56.09a8.63,8.63,0,0,1-8.63,8.63H635.16A8.63,8.63,0,0,1,626.53,266.71Z"/><path class="cls-2" d="M525.75,256a13,13,0,0,1,26.07,0h0v.43h38.81V303H538a12.24,12.24,0,0,1-12.22-12.27V256Z"/><line class="cls-2" x1="551.85" y1="256.01" x2="551.85" y2="289.84"/><path class="cls-2" d="M525.73,289.41a13,13,0,1,1,26.09-.42"/><rect class="cls-3" x="556.01" y="261.49" width="27.95" height="12.11"/><rect class="cls-3" x="572.77" y="278.26" width="10.25" height="16.77"/><rect class="cls-3" x="556.01" y="278.26" width="13.04" height="16.77"/><rect class="cls-4" x="579.76" y="286.18" width="5.59" height="2.79"/><rect class="cls-4" x="580.69" y="266.62" width="5.59" height="2.79"/><rect class="cls-4" x="562.06" y="292.7" width="3.73" height="3.73"/><rect class="cls-4" x="562.06" y="271.27" width="3.73" height="3.73"/><rect class="cls-4" x="575.1" y="271.27" width="1.86" height="4.66"/><rect class="cls-3" x="572.77" y="278.26" width="10.25" height="16.77"/><polygon class="cls-2" points="633.97 218.75 615.75 221.72 618.72 203.5 633.97 218.75"/><rect class="cls-2" x="620.84" y="187.27" width="37.15" height="21.55" transform="translate(47.24 510.15) rotate(-45)"/><path class="cls-2" d="M661.52,190.92l-15-15,.44-.44a10.59,10.59,0,0,1,15,15Z"/><rect class="cls-2" x="651.78" y="172.34" width="5.26" height="21.43" transform="translate(62.23 516.35) rotate(-45)"/><line class="cls-2" x1="649.67" y1="181.79" x2="623.4" y2="208.06"/><line class="cls-2" x1="655.87" y1="187.99" x2="629.6" y2="214.25"/><line class="cls-2" x1="646.48" y1="175.87" x2="661.59" y2="190.99"/><polygon class="cls-4" points="622.97 220.72 615.75 221.9 616.93 214.68 622.97 220.72"/><polygon class="cls-3" points="633.97 218.75 615.75 221.72 618.72 203.5 633.97 218.75"/><rect class="cls-3" x="620.84" y="187.27" width="37.15" height="21.55" transform="translate(47.24 510.15) rotate(-45)"/><path class="cls-3" d="M661.52,190.92l-15-15,.44-.44a10.59,10.59,0,0,1,15,15Z"/><rect class="cls-3" x="651.78" y="172.34" width="5.26" height="21.43" transform="translate(62.23 516.35) rotate(-45)"/><line class="cls-3" x1="649.67" y1="181.79" x2="623.4" y2="208.06"/><line class="cls-3" x1="655.87" y1="187.99" x2="629.6" y2="214.25"/><line class="cls-3" x1="646.48" y1="175.87" x2="661.59" y2="190.99"/><polygon class="cls-5" points="622.97 220.72 615.75 221.9 616.93 214.68 622.97 220.72"/><path class="cls-4" d="M494.84,196.41a25.62,25.62,0,1,1-25.61-25.62c1.61,0-.34-.37,1,.44,5.21,3.17,14.53,14.34,24.35,23.32C495.48,195.38,494.84,195.14,494.84,196.41Z"/><path class="cls-3" d="M494.7,196.41a25.48,25.48,0,1,1-25.48-25.47c7.67,0,3.44,11.63,8.11,17,3.91,4.47,17.37,2.08,17.37,8.49"/><line class="cls-3" x1="472.39" y1="172.02" x2="493.81" y2="194.01"/><polygon class="cls-2" points="358.53 62.45 360.17 38.54 409.47 16.55 407.81 33.37 358.53 62.45"/><polygon class="cls-2" points="367.29 45.6 395.3 32.23 390.89 48.4 358.54 62.45 367.29 45.6"/><polygon class="cls-2" points="367.29 45.6 416.24 22.24 416.94 47.45 368.1 71 367.29 45.6"/><polygon class="cls-2" points="555.4 68.39 527.05 46.42 563.02 20.09 584.94 32.83 555.4 68.39"/><polygon class="cls-2" points="390.52 151.3 362.17 129.32 398.14 103 420.06 115.73 390.52 151.3"/><polygon class="cls-2" points="389.61 144.88 420.5 107.77 393.15 96.38 362.17 129.32 389.61 144.88"/><polygon class="cls-2" points="436.31 121.38 436.31 124.31 471.67 148.32 483.85 138.9 442.36 117.65 436.31 121.38"/><polygon class="cls-2" points="483.85 138.9 470.65 146.75 438.11 117.54 446.49 113.48 483.85 138.9"/><polygon class="cls-2" points="482.44 139.49 470.14 144.82 443.63 113.33 459.45 107.71 482.44 139.49"/><polygon class="cls-2" points="484.85 138.9 468.39 143.63 448.67 109.28 474.12 103.66 484.85 138.9"/><polygon class="cls-2" points="486.66 138.18 467.97 142.08 454.72 106.55 461.89 105.45 486.66 138.18"/><polygon class="cls-2" points="484.79 138.56 468.55 140.63 460.92 103.47 487.99 100.46 484.79 138.56"/><polygon class="cls-2" points="487.93 138.15 468.53 138.69 467.53 101.53 474.91 101.53 487.93 138.15"/><polygon class="cls-2" points="494.73 138.6 468.92 136.87 473.9 100.41 490.68 100.7 494.73 138.6"/><polygon class="cls-2" points="495.89 138.6 468.92 135.55 480.54 98.95 506.02 102.58 495.89 138.6"/><polygon class="cls-2" points="497.63 139.91 469.56 133.54 486.04 99.08 512.67 104.75 497.63 139.91"/><rect class="cls-2" x="606.85" y="100.34" width="56.09" height="33.44"/><path class="cls-2" d="M606.85,100.34h56.08a8.62,8.62,0,0,1-8.62,8.63H615.48a8.63,8.63,0,0,1-8.63-8.63"/><rect class="cls-2" x="616.69" y="106.68" width="56.09" height="33.44"/><path class="cls-2" d="M616.69,106.68h56.09a8.64,8.64,0,0,1-8.63,8.63H625.32A8.63,8.63,0,0,1,616.69,106.68Z"/><rect class="cls-2" x="626.53" y="113.01" width="56.09" height="33.44"/><path class="cls-2" d="M626.53,113h56.09a8.63,8.63,0,0,1-8.63,8.63H635.16A8.63,8.63,0,0,1,626.53,113Z"/><path class="cls-2" d="M525.75,102.31a13,13,0,0,1,26.07,0h0v.42h38.81v46.51H538A12.24,12.24,0,0,1,525.73,137V102.31Z"/><line class="cls-2" x1="551.85" y1="102.31" x2="551.85" y2="136.14"/><path class="cls-2" d="M525.73,135.71a13,13,0,1,1,26.09-.42"/><rect class="cls-3" x="556.01" y="107.79" width="27.95" height="12.11"/><rect class="cls-3" x="572.77" y="124.56" width="10.25" height="16.77"/><rect class="cls-3" x="556.01" y="124.56" width="13.04" height="16.77"/><rect class="cls-4" x="579.76" y="132.48" width="5.59" height="2.79"/><rect class="cls-4" x="580.69" y="112.92" width="5.59" height="2.79"/><rect class="cls-4" x="562.06" y="139" width="3.73" height="3.73"/><rect class="cls-4" x="562.06" y="117.57" width="3.73" height="3.73"/><rect class="cls-4" x="575.1" y="117.57" width="1.86" height="4.66"/><rect class="cls-3" x="572.77" y="124.56" width="10.25" height="16.77"/><polygon class="cls-2" points="633.97 65.05 615.75 68.02 618.72 49.8 633.97 65.05"/><rect class="cls-2" x="620.84" y="33.57" width="37.15" height="21.55" transform="translate(155.92 465.13) rotate(-45)"/><path class="cls-2" d="M661.52,37.22l-15-15,.44-.44a10.59,10.59,0,0,1,15,15Z"/><rect class="cls-2" x="651.78" y="18.64" width="5.26" height="21.43" transform="translate(170.91 471.34) rotate(-45)"/><line class="cls-2" x1="649.67" y1="28.09" x2="623.4" y2="54.36"/><line class="cls-2" x1="655.87" y1="34.29" x2="629.6" y2="60.55"/><line class="cls-2" x1="646.48" y1="22.17" x2="661.59" y2="37.29"/><polygon class="cls-4" points="622.97 67.02 615.75 68.2 616.93 60.98 622.97 67.02"/><polygon class="cls-3" points="633.97 65.05 615.75 68.02 618.72 49.8 633.97 65.05"/><rect class="cls-3" x="620.84" y="33.57" width="37.15" height="21.55" transform="translate(155.92 465.13) rotate(-45)"/><path class="cls-3" d="M661.52,37.22l-15-15,.44-.44a10.59,10.59,0,0,1,15,15Z"/><rect class="cls-3" x="651.78" y="18.64" width="5.26" height="21.43" transform="translate(170.91 471.34) rotate(-45)"/><line class="cls-3" x1="649.67" y1="28.09" x2="623.4" y2="54.36"/><line class="cls-3" x1="655.87" y1="34.29" x2="629.6" y2="60.55"/><line class="cls-3" x1="646.48" y1="22.17" x2="661.59" y2="37.29"/><polygon class="cls-5" points="622.97 67.02 615.75 68.2 616.93 60.98 622.97 67.02"/><path class="cls-4" d="M494.84,42.71a25.62,25.62,0,1,1-25.61-25.62c1.61,0-.34-.37,1,.44,5.21,3.17,14.53,14.34,24.35,23.32C495.48,41.68,494.84,41.44,494.84,42.71Z"/><path class="cls-3" d="M494.7,42.71a25.48,25.48,0,1,1-25.48-25.47c7.67,0,3.44,11.63,8.11,17,3.91,4.47,17.37,2.08,17.37,8.49"/><line class="cls-3" x1="472.39" y1="18.32" x2="493.81" y2="40.31"/></g><g class="cls-1"><polygon class="cls-2" points="13.87 216.15 15.51 192.24 64.81 170.25 63.15 187.07 13.87 216.15"/><polygon class="cls-2" points="22.63 199.3 50.64 185.93 46.23 202.1 13.87 216.15 22.63 199.3"/><polygon class="cls-2" points="22.63 199.3 71.58 175.94 72.28 201.15 23.44 224.7 22.63 199.3"/><polygon class="cls-2" points="210.74 222.09 182.39 200.12 218.36 173.79 240.28 186.53 210.74 222.09"/><polygon class="cls-2" points="45.86 305 17.51 283.02 53.48 256.7 75.4 269.43 45.86 305"/><polygon class="cls-2" points="44.95 298.58 75.84 261.47 48.49 250.07 17.51 283.02 44.95 298.58"/><polygon class="cls-2" points="91.64 275.08 91.64 278.01 127.01 302.02 139.19 292.6 97.69 271.35 91.64 275.08"/><polygon class="cls-2" points="139.19 292.6 125.99 300.45 93.45 271.24 101.83 267.18 139.19 292.6"/><polygon class="cls-2" points="137.78 293.19 125.48 298.52 98.97 267.03 114.78 261.41 137.78 293.19"/><polygon class="cls-2" points="140.19 292.6 123.73 297.33 104.01 262.98 129.45 257.37 140.19 292.6"/><polygon class="cls-2" points="142 291.88 123.31 295.78 110.06 260.25 117.23 259.15 142 291.88"/><polygon class="cls-2" points="140.13 292.26 123.89 294.33 116.26 257.17 143.33 254.16 140.13 292.26"/><polygon class="cls-2" points="143.26 291.85 123.87 292.4 122.87 255.23 130.25 255.23 143.26 291.85"/><polygon class="cls-2" points="150.07 292.3 124.26 290.57 129.24 254.11 146.02 254.4 150.07 292.3"/><polygon class="cls-2" points="151.23 292.3 124.26 289.25 135.87 252.66 161.36 256.29 151.23 292.3"/><polygon class="cls-2" points="152.96 293.61 124.9 287.24 141.38 252.78 168.01 258.45 152.96 293.61"/><rect class="cls-2" x="262.19" y="254.04" width="56.09" height="33.44"/><path class="cls-2" d="M262.19,254h56.08a8.63,8.63,0,0,1-8.63,8.63H270.82a8.63,8.63,0,0,1-8.63-8.63"/><rect class="cls-2" x="272.03" y="260.38" width="56.09" height="33.44"/><path class="cls-2" d="M272,260.38h56.09a8.64,8.64,0,0,1-8.63,8.63H280.66A8.63,8.63,0,0,1,272,260.38Z"/><rect class="cls-2" x="281.87" y="266.71" width="56.09" height="33.44"/><path class="cls-2" d="M281.87,266.71H338a8.63,8.63,0,0,1-8.63,8.63H290.5A8.63,8.63,0,0,1,281.87,266.71Z"/><path class="cls-2" d="M181.09,256a13,13,0,0,1,26.07,0h0v.43H246V303h-52.7a12.24,12.24,0,0,1-12.22-12.27V256Z"/><line class="cls-2" x1="207.18" y1="256.01" x2="207.18" y2="289.84"/><path class="cls-2" d="M181.07,289.41a13,13,0,1,1,26.09-.42"/><rect class="cls-3" x="211.35" y="261.49" width="27.95" height="12.11"/><rect class="cls-3" x="228.11" y="278.26" width="10.25" height="16.77"/><rect class="cls-3" x="211.35" y="278.26" width="13.04" height="16.77"/><rect class="cls-4" x="235.1" y="286.18" width="5.59" height="2.79"/><rect class="cls-4" x="236.03" y="266.62" width="5.59" height="2.79"/><rect class="cls-4" x="217.4" y="292.7" width="3.73" height="3.73"/><rect class="cls-4" x="217.4" y="271.27" width="3.73" height="3.73"/><rect class="cls-4" x="230.44" y="271.27" width="1.86" height="4.66"/><rect class="cls-3" x="228.11" y="278.26" width="10.25" height="16.77"/><polygon class="cls-2" points="289.3 218.75 271.09 221.72 274.06 203.5 289.3 218.75"/><rect class="cls-2" x="276.18" y="187.27" width="37.15" height="21.55" transform="translate(-53.71 266.43) rotate(-45)"/><path class="cls-2" d="M316.86,190.92l-15-15,.44-.44a10.59,10.59,0,0,1,15,15Z"/><rect class="cls-2" x="307.12" y="172.34" width="5.26" height="21.43" transform="translate(-38.72 272.64) rotate(-45)"/><line class="cls-2" x1="305.01" y1="181.79" x2="278.74" y2="208.06"/><line class="cls-2" x1="311.2" y1="187.99" x2="284.94" y2="214.25"/><line class="cls-2" x1="301.82" y1="175.87" x2="316.93" y2="190.99"/><polygon class="cls-4" points="278.31 220.72 271.09 221.9 272.26 214.68 278.31 220.72"/><polygon class="cls-3" points="289.3 218.75 271.09 221.72 274.06 203.5 289.3 218.75"/><rect class="cls-3" x="276.18" y="187.27" width="37.15" height="21.55" transform="translate(-53.71 266.43) rotate(-45)"/><path class="cls-3" d="M316.86,190.92l-15-15,.44-.44a10.59,10.59,0,0,1,15,15Z"/><rect class="cls-3" x="307.12" y="172.34" width="5.26" height="21.43" transform="translate(-38.72 272.64) rotate(-45)"/><line class="cls-3" x1="305.01" y1="181.79" x2="278.74" y2="208.06"/><line class="cls-3" x1="311.2" y1="187.99" x2="284.94" y2="214.25"/><line class="cls-3" x1="301.82" y1="175.87" x2="316.93" y2="190.99"/><polygon class="cls-5" points="278.31 220.72 271.09 221.9 272.26 214.68 278.31 220.72"/><path class="cls-4" d="M150.18,196.41a25.62,25.62,0,1,1-25.62-25.62c1.62,0-.33-.37,1,.44,5.21,3.17,14.52,14.34,24.35,23.32C150.82,195.38,150.18,195.14,150.18,196.41Z"/><path class="cls-3" d="M150,196.41a25.48,25.48,0,1,1-25.48-25.47c7.66,0,3.44,11.63,8.11,17,3.91,4.47,17.37,2.08,17.37,8.49"/><line class="cls-3" x1="127.73" y1="172.02" x2="149.15" y2="194.01"/><polygon class="cls-2" points="13.87 62.45 15.51 38.54 64.81 16.55 63.15 33.37 13.87 62.45"/><polygon class="cls-2" points="22.63 45.6 50.64 32.23 46.23 48.4 13.87 62.45 22.63 45.6"/><polygon class="cls-2" points="22.63 45.6 71.58 22.24 72.28 47.45 23.44 71 22.63 45.6"/><polygon class="cls-2" points="210.74 68.39 182.39 46.42 218.36 20.09 240.28 32.83 210.74 68.39"/><polygon class="cls-2" points="45.86 151.3 17.51 129.32 53.48 103 75.4 115.73 45.86 151.3"/><polygon class="cls-2" points="44.95 144.88 75.84 107.77 48.49 96.38 17.51 129.32 44.95 144.88"/><polygon class="cls-2" points="91.64 121.38 91.64 124.31 127.01 148.32 139.19 138.9 97.69 117.65 91.64 121.38"/><polygon class="cls-2" points="139.19 138.9 125.99 146.75 93.45 117.54 101.83 113.48 139.19 138.9"/><polygon class="cls-2" points="137.78 139.49 125.48 144.82 98.97 113.33 114.78 107.71 137.78 139.49"/><polygon class="cls-2" points="140.19 138.9 123.73 143.63 104.01 109.28 129.45 103.66 140.19 138.9"/><polygon class="cls-2" points="142 138.18 123.31 142.08 110.06 106.55 117.23 105.45 142 138.18"/><polygon class="cls-2" points="140.13 138.56 123.89 140.63 116.26 103.47 143.33 100.46 140.13 138.56"/><polygon class="cls-2" points="143.26 138.15 123.87 138.69 122.87 101.53 130.25 101.53 143.26 138.15"/><polygon class="cls-2" points="150.07 138.6 124.26 136.87 129.24 100.41 146.02 100.7 150.07 138.6"/><polygon class="cls-2" points="151.23 138.6 124.26 135.55 135.87 98.95 161.36 102.58 151.23 138.6"/><polygon class="cls-2" points="152.96 139.91 124.9 133.54 141.38 99.08 168.01 104.75 152.96 139.91"/><rect class="cls-2" x="262.19" y="100.34" width="56.09" height="33.44"/><path class="cls-2" d="M262.19,100.34h56.08a8.63,8.63,0,0,1-8.63,8.63H270.82a8.63,8.63,0,0,1-8.63-8.63"/><rect class="cls-2" x="272.03" y="106.68" width="56.09" height="33.44"/><path class="cls-2" d="M272,106.68h56.09a8.64,8.64,0,0,1-8.63,8.63H280.66A8.63,8.63,0,0,1,272,106.68Z"/><rect class="cls-2" x="281.87" y="113.01" width="56.09" height="33.44"/><path class="cls-2" d="M281.87,113H338a8.63,8.63,0,0,1-8.63,8.63H290.5A8.63,8.63,0,0,1,281.87,113Z"/><path class="cls-2" d="M181.09,102.31a13,13,0,0,1,26.07,0h0v.42H246v46.51h-52.7A12.24,12.24,0,0,1,181.07,137V102.31Z"/><line class="cls-2" x1="207.18" y1="102.31" x2="207.18" y2="136.14"/><path class="cls-2" d="M181.07,135.71a13,13,0,1,1,26.09-.42"/><rect class="cls-3" x="211.35" y="107.79" width="27.95" height="12.11"/><rect class="cls-3" x="228.11" y="124.56" width="10.25" height="16.77"/><rect class="cls-3" x="211.35" y="124.56" width="13.04" height="16.77"/><rect class="cls-4" x="235.1" y="132.48" width="5.59" height="2.79"/><rect class="cls-4" x="236.03" y="112.92" width="5.59" height="2.79"/><rect class="cls-4" x="217.4" y="139" width="3.73" height="3.73"/><rect class="cls-4" x="217.4" y="117.57" width="3.73" height="3.73"/><rect class="cls-4" x="230.44" y="117.57" width="1.86" height="4.66"/><rect class="cls-3" x="228.11" y="124.56" width="10.25" height="16.77"/><polygon class="cls-2" points="289.3 65.05 271.09 68.02 274.06 49.8 289.3 65.05"/><rect class="cls-2" x="276.18" y="33.57" width="37.15" height="21.55" transform="translate(54.97 221.41) rotate(-45)"/><path class="cls-2" d="M316.86,37.22l-15-15,.44-.44a10.59,10.59,0,0,1,15,15Z"/><rect class="cls-2" x="307.12" y="18.64" width="5.26" height="21.43" transform="translate(69.96 227.62) rotate(-45)"/><line class="cls-2" x1="305.01" y1="28.09" x2="278.74" y2="54.36"/><line class="cls-2" x1="311.2" y1="34.29" x2="284.94" y2="60.55"/><line class="cls-2" x1="301.82" y1="22.17" x2="316.93" y2="37.29"/><polygon class="cls-4" points="278.31 67.02 271.09 68.2 272.26 60.98 278.31 67.02"/><polygon class="cls-3" points="289.3 65.05 271.09 68.02 274.06 49.8 289.3 65.05"/><rect class="cls-3" x="276.18" y="33.57" width="37.15" height="21.55" transform="translate(54.97 221.41) rotate(-45)"/><path class="cls-3" d="M316.86,37.22l-15-15,.44-.44a10.59,10.59,0,0,1,15,15Z"/><rect class="cls-3" x="307.12" y="18.64" width="5.26" height="21.43" transform="translate(69.96 227.62) rotate(-45)"/><line class="cls-3" x1="305.01" y1="28.09" x2="278.74" y2="54.36"/><line class="cls-3" x1="311.2" y1="34.29" x2="284.94" y2="60.55"/><line class="cls-3" x1="301.82" y1="22.17" x2="316.93" y2="37.29"/><polygon class="cls-5" points="278.31 67.02 271.09 68.2 272.26 60.98 278.31 67.02"/><path class="cls-4" d="M150.18,42.71a25.62,25.62,0,1,1-25.62-25.62c1.62,0-.33-.37,1,.44,5.21,3.17,14.52,14.34,24.35,23.32C150.82,41.68,150.18,41.44,150.18,42.71Z"/><path class="cls-3" d="M150,42.71a25.48,25.48,0,1,1-25.48-25.47c7.66,0,3.44,11.63,8.11,17C136.58,38.69,150,36.3,150,42.71"/><line class="cls-3" x1="127.73" y1="18.32" x2="149.15" y2="40.31"/></g></svg>