<svg id="Layer_1" data-name="Layer 1" xmlns="http://www.w3.org/2000/svg" viewBox="0 0 84 84"><defs><style>.cls-1,.cls-2{fill:#fff;}.cls-1,.cls-3{stroke:#981918;stroke-miterlimit:10;}.cls-3{fill:none;}.cls-4{fill:#981918;}</style></defs><title>Artboard 10100</title><polygon class="cls-1" points="33.69 68.31 14.13 71.5 17.32 51.94 33.69 68.31"/><rect class="cls-1" x="19.6" y="34.52" width="39.88" height="23.14" transform="translate(-21.01 41.46) rotate(-45)"/><path class="cls-1" d="M63.27,38.43,47.2,22.36l.47-.48A11.37,11.37,0,0,1,63.75,38Z"/><rect class="cls-1" x="52.81" y="18.49" width="5.64" height="23" transform="translate(-4.91 48.13) rotate(-45)"/><line class="cls-1" x1="50.55" y1="28.63" x2="22.35" y2="56.83"/><line class="cls-1" x1="57.2" y1="35.29" x2="29" y2="63.48"/><line class="cls-1" x1="47.12" y1="22.28" x2="63.35" y2="38.51"/><polygon class="cls-2" points="21.89 70.43 14.13 71.7 15.4 63.94 21.89 70.43"/><polygon class="cls-3" points="33.69 68.31 14.13 71.5 17.32 51.94 33.69 68.31"/><rect class="cls-3" x="19.6" y="34.52" width="39.88" height="23.14" transform="translate(-21.01 41.46) rotate(-45)"/><path class="cls-3" d="M63.27,38.43,47.2,22.36l.47-.48A11.37,11.37,0,0,1,63.75,38Z"/><rect class="cls-3" x="52.81" y="18.49" width="5.64" height="23" transform="translate(-4.91 48.13) rotate(-45)"/><line class="cls-3" x1="50.55" y1="28.63" x2="22.35" y2="56.83"/><line class="cls-3" x1="57.2" y1="35.29" x2="29" y2="63.48"/><line class="cls-3" x1="47.12" y1="22.28" x2="63.35" y2="38.51"/><polygon class="cls-4" points="21.89 70.43 14.13 71.7 15.4 63.94 21.89 70.43"/></svg>