<svg id="Layer_1" data-name="Layer 1" xmlns="http://www.w3.org/2000/svg" viewBox="0 0 364 328"><defs><style>.cls-1{opacity:0.4;}.cls-2,.cls-4{fill:#fff;}.cls-2,.cls-3{stroke:#981918;stroke-miterlimit:10;}.cls-3{fill:none;}.cls-5{fill:#981918;}</style></defs><title>Artboard 5100</title><g class="cls-1"><polygon class="cls-2" points="7.51 223.82 9.26 198.16 62.19 174.55 60.41 192.6 7.51 223.82"/><polygon class="cls-2" points="16.91 205.74 46.98 191.39 42.24 208.74 7.51 223.82 16.91 205.74"/><polygon class="cls-2" points="16.91 205.74 69.46 180.66 70.21 207.72 17.78 233 16.91 205.74"/><polygon class="cls-2" points="218.85 230.21 188.41 206.61 227.03 178.35 250.56 192.02 218.85 230.21"/><polygon class="cls-2" points="41.85 319.21 11.41 295.61 50.03 267.36 73.56 281.02 41.85 319.21"/><polygon class="cls-2" points="40.87 312.32 74.04 272.48 44.67 260.24 11.42 295.61 40.87 312.32"/><polygon class="cls-2" points="91 287.09 91 290.23 128.97 316.01 142.04 305.89 97.5 283.09 91 287.09"/><polygon class="cls-2" points="142.04 305.89 127.87 314.32 92.94 282.96 101.93 278.6 142.04 305.89"/><polygon class="cls-2" points="140.52 306.52 127.32 312.25 98.86 278.44 115.84 272.41 140.52 306.52"/><polygon class="cls-2" points="143.11 305.89 125.45 310.98 104.28 274.09 131.59 268.07 143.11 305.89"/><polygon class="cls-2" points="145.06 305.12 124.99 309.3 110.77 271.16 118.47 269.99 145.06 305.12"/><polygon class="cls-2" points="143.05 305.53 125.61 307.75 117.43 267.86 146.48 264.63 143.05 305.53"/><polygon class="cls-2" points="146.41 305.08 125.59 305.68 124.52 265.78 132.44 265.78 146.41 305.08"/><polygon class="cls-2" points="153.72 305.58 126.02 303.71 131.36 264.58 149.37 264.89 153.72 305.58"/><polygon class="cls-2" points="154.96 305.58 126.02 302.3 138.48 263.01 165.84 266.91 154.96 305.58"/><polygon class="cls-2" points="156.83 306.97 126.7 300.14 144.39 263.14 172.98 269.24 156.83 306.97"/><rect class="cls-2" x="274.08" y="264.5" width="60.21" height="35.9"/><path class="cls-2" d="M274.08,264.5h60.21a9.26,9.26,0,0,1-9.26,9.26H283.34a9.26,9.26,0,0,1-9.26-9.26"/><rect class="cls-2" x="284.64" y="271.3" width="60.21" height="35.9"/><path class="cls-2" d="M284.64,271.3h60.22a9.27,9.27,0,0,1-9.27,9.27H293.91A9.27,9.27,0,0,1,284.64,271.3Z"/><rect class="cls-2" x="295.21" y="278.1" width="60.21" height="35.9"/><path class="cls-2" d="M295.21,278.11h60.21a9.27,9.27,0,0,1-9.26,9.26H304.47A9.27,9.27,0,0,1,295.21,278.11Z"/><path class="cls-2" d="M187,266.62a14,14,0,0,1,28,0h0v.45H256.7V317H200.11A13.13,13.13,0,0,1,187,303.84V266.62Z"/><line class="cls-2" x1="215.03" y1="266.62" x2="215.03" y2="302.93"/><path class="cls-2" d="M187,302.48a14,14,0,1,1,28-.46"/><rect class="cls-3" x="219.5" y="272.5" width="30" height="13"/><rect class="cls-3" x="237.5" y="290.5" width="11" height="18"/><rect class="cls-3" x="219.5" y="290.5" width="14" height="18"/><rect class="cls-4" x="245" y="299" width="6" height="3"/><rect class="cls-4" x="246" y="278" width="6" height="3"/><rect class="cls-4" x="226" y="306" width="4" height="4"/><rect class="cls-4" x="226" y="283" width="4" height="4"/><rect class="cls-4" x="240" y="283" width="2" height="5"/><rect class="cls-3" x="237.5" y="290.5" width="11" height="18"/><polygon class="cls-2" points="303.19 226.61 283.63 229.8 286.82 210.25 303.19 226.61"/><rect class="cls-2" x="289.1" y="192.82" width="39.88" height="23.14" transform="translate(-54.01 278.39) rotate(-45)"/><path class="cls-2" d="M332.77,196.74,316.7,180.66l.47-.47a11.37,11.37,0,1,1,16.08,16.07Z"/><rect class="cls-2" x="322.31" y="176.8" width="5.64" height="23" transform="translate(-37.92 285.06) rotate(-45)"/><line class="cls-2" x1="320.05" y1="186.94" x2="291.85" y2="215.14"/><line class="cls-2" x1="326.7" y1="193.59" x2="298.5" y2="221.79"/><line class="cls-2" x1="316.62" y1="180.59" x2="332.85" y2="196.81"/><polygon class="cls-4" points="291.39 228.74 283.63 230 284.9 222.25 291.39 228.74"/><polygon class="cls-3" points="303.19 226.61 283.63 229.8 286.82 210.25 303.19 226.61"/><rect class="cls-3" x="289.1" y="192.82" width="39.88" height="23.14" transform="translate(-54.01 278.39) rotate(-45)"/><path class="cls-3" d="M332.77,196.74,316.7,180.66l.47-.47a11.37,11.37,0,1,1,16.08,16.07Z"/><rect class="cls-3" x="322.31" y="176.8" width="5.64" height="23" transform="translate(-37.92 285.06) rotate(-45)"/><line class="cls-3" x1="320.05" y1="186.94" x2="291.85" y2="215.14"/><line class="cls-3" x1="326.7" y1="193.59" x2="298.5" y2="221.79"/><line class="cls-3" x1="316.62" y1="180.59" x2="332.85" y2="196.81"/><polygon class="cls-5" points="291.39 228.74 283.63 230 284.9 222.25 291.39 228.74"/><path class="cls-4" d="M153.84,202.63a27.5,27.5,0,1,1-27.5-27.5c1.73,0-.36-.4,1.07.47,5.59,3.4,15.59,15.4,26.14,25C154.52,201.52,153.84,201.27,153.84,202.63Z"/><path class="cls-3" d="M153.68,202.63a27.35,27.35,0,1,1-27.34-27.34c8.22,0,3.69,12.48,8.7,18.23,4.19,4.8,18.64,2.23,18.64,9.11"/><line class="cls-3" x1="129.74" y1="176.45" x2="152.74" y2="200.06"/><polygon class="cls-2" points="7.51 58.82 9.26 33.16 62.19 9.55 60.41 27.61 7.51 58.82"/><polygon class="cls-2" points="16.91 40.74 46.98 26.39 42.24 43.74 7.51 58.82 16.91 40.74"/><polygon class="cls-2" points="16.91 40.74 69.46 15.66 70.21 42.72 17.78 68 16.91 40.74"/><polygon class="cls-2" points="218.85 65.21 188.41 41.61 227.03 13.36 250.56 27.02 218.85 65.21"/><polygon class="cls-2" points="41.85 154.21 11.41 130.61 50.03 102.36 73.56 116.02 41.85 154.21"/><polygon class="cls-2" points="40.87 147.32 74.04 107.48 44.67 95.24 11.42 130.61 40.87 147.32"/><polygon class="cls-2" points="91 122.09 91 125.23 128.97 151.01 142.04 140.89 97.5 118.09 91 122.09"/><polygon class="cls-2" points="142.04 140.89 127.87 149.32 92.94 117.96 101.93 113.6 142.04 140.89"/><polygon class="cls-2" points="140.52 141.52 127.32 147.25 98.86 113.44 115.84 107.41 140.52 141.52"/><polygon class="cls-2" points="143.11 140.89 125.45 145.98 104.28 109.09 131.59 103.07 143.11 140.89"/><polygon class="cls-2" points="145.06 140.12 124.99 144.3 110.77 106.16 118.47 104.99 145.06 140.12"/><polygon class="cls-2" points="143.05 140.53 125.61 142.75 117.43 102.86 146.48 99.63 143.05 140.53"/><polygon class="cls-2" points="146.41 140.09 125.59 140.68 124.52 100.78 132.44 100.78 146.41 140.09"/><polygon class="cls-2" points="153.72 140.58 126.02 138.71 131.36 99.58 149.37 99.89 153.72 140.58"/><polygon class="cls-2" points="154.96 140.58 126.02 137.3 138.48 98.01 165.84 101.91 154.96 140.58"/><polygon class="cls-2" points="156.83 141.97 126.7 135.14 144.39 98.14 172.98 104.24 156.83 141.97"/><rect class="cls-2" x="274.08" y="99.5" width="60.21" height="35.9"/><path class="cls-2" d="M274.08,99.5h60.21a9.26,9.26,0,0,1-9.26,9.26H283.34a9.26,9.26,0,0,1-9.26-9.26"/><rect class="cls-2" x="284.64" y="106.3" width="60.21" height="35.9"/><path class="cls-2" d="M284.64,106.3h60.22a9.27,9.27,0,0,1-9.27,9.27H293.91A9.27,9.27,0,0,1,284.64,106.3Z"/><rect class="cls-2" x="295.21" y="113.1" width="60.21" height="35.9"/><path class="cls-2" d="M295.21,113.11h60.21a9.27,9.27,0,0,1-9.26,9.26H304.47A9.27,9.27,0,0,1,295.21,113.11Z"/><path class="cls-2" d="M187,101.62a14,14,0,0,1,28,0h0v.45H256.7V152H200.11A13.13,13.13,0,0,1,187,138.84V101.62Z"/><line class="cls-2" x1="215.03" y1="101.62" x2="215.03" y2="137.93"/><path class="cls-2" d="M187,137.48a14,14,0,1,1,28-.46"/><rect class="cls-3" x="219.5" y="107.5" width="30" height="13"/><rect class="cls-3" x="237.5" y="125.5" width="11" height="18"/><rect class="cls-3" x="219.5" y="125.5" width="14" height="18"/><rect class="cls-4" x="245" y="134" width="6" height="3"/><rect class="cls-4" x="246" y="113" width="6" height="3"/><rect class="cls-4" x="226" y="141" width="4" height="4"/><rect class="cls-4" x="226" y="118" width="4" height="4"/><rect class="cls-4" x="240" y="118" width="2" height="5"/><rect class="cls-3" x="237.5" y="125.5" width="11" height="18"/><polygon class="cls-2" points="303.19 61.61 283.63 64.8 286.82 45.24 303.19 61.61"/><rect class="cls-2" x="289.1" y="27.82" width="39.88" height="23.14" transform="translate(62.66 230.06) rotate(-45)"/><path class="cls-2" d="M332.77,31.74,316.7,15.66l.47-.47a11.37,11.37,0,1,1,16.08,16.07Z"/><rect class="cls-2" x="322.31" y="11.8" width="5.64" height="23" transform="translate(78.76 236.73) rotate(-45)"/><line class="cls-2" x1="320.05" y1="21.94" x2="291.85" y2="50.14"/><line class="cls-2" x1="326.7" y1="28.59" x2="298.5" y2="56.79"/><line class="cls-2" x1="316.62" y1="15.59" x2="332.85" y2="31.81"/><polygon class="cls-4" points="291.39 63.73 283.63 65 284.9 57.24 291.39 63.73"/><polygon class="cls-3" points="303.19 61.61 283.63 64.8 286.82 45.24 303.19 61.61"/><rect class="cls-3" x="289.1" y="27.82" width="39.88" height="23.14" transform="translate(62.66 230.06) rotate(-45)"/><path class="cls-3" d="M332.77,31.74,316.7,15.66l.47-.47a11.37,11.37,0,1,1,16.08,16.07Z"/><rect class="cls-3" x="322.31" y="11.8" width="5.64" height="23" transform="translate(78.76 236.73) rotate(-45)"/><line class="cls-3" x1="320.05" y1="21.94" x2="291.85" y2="50.14"/><line class="cls-3" x1="326.7" y1="28.59" x2="298.5" y2="56.79"/><line class="cls-3" x1="316.62" y1="15.59" x2="332.85" y2="31.81"/><polygon class="cls-5" points="291.39 63.73 283.63 65 284.9 57.24 291.39 63.73"/><path class="cls-4" d="M153.84,37.63a27.5,27.5,0,1,1-27.5-27.5c1.73,0-.36-.4,1.07.47C133,14,143,26,153.55,35.63,154.52,36.52,153.84,36.27,153.84,37.63Z"/><path class="cls-3" d="M153.68,37.63a27.35,27.35,0,1,1-27.34-27.34c8.22,0,3.69,12.48,8.7,18.23,4.19,4.8,18.64,2.23,18.64,9.11"/><line class="cls-3" x1="129.74" y1="11.45" x2="152.74" y2="35.06"/></g></svg>