<svg id="Layer_1" data-name="Layer 1" xmlns="http://www.w3.org/2000/svg" viewBox="0 0 167.8 331.23"><defs><style>.cls-1{fill:#981a16;}</style></defs><title>Artboard 18100</title><path class="cls-1" d="M64.1,331.23c0-12.26,0-24.53,0-36.8,0-9.95.12-19.91.19-29.87l.21-26.79q.09-13.61.2-27.21c.06-7.87.1-15.74.23-23.61a3.67,3.67,0,0,0-1.5-3.44,21.88,21.88,0,0,0-3.32-2.11c-1.56-.7-2.71-.08-3.24,1.56s-.87,3.25-1.46,4.82a15.51,15.51,0,0,1-4.53,6.1,2.08,2.08,0,0,1-1.22.38c-1.71,0-3.43,0-5.14,0-2.87-.06-5.73,0-8.57,1.37a25.67,25.67,0,0,1,.66-2.58c.08-.21.6-.34.93-.36,2.6-.23,5.2-.43,7.81-.62,1.75-.12,2.53-1.45,3.27-2.74a37.37,37.37,0,0,0,3.62-10.75c.31-1.45.79-2,2.24-1.91,2.06.15,4.1.49,6.16.66a6.94,6.94,0,0,1,4.5,1.64V147.44a13.66,13.66,0,0,0-4.81,2,52.09,52.09,0,0,1-11.76,5.8,44.1,44.1,0,0,1-9.92,2c-.8,0-1.6.16-2.57.26,0-1.42,0-2.67,0-3.92,0-.21.44-.43.71-.57.75-.41,1.53-.77,2.29-1.16,0-.17,0-.35-.07-.53l-2.92-.47c0-.28-.06-.64-.06-1,0-1.72,0-3.43,0-5.14a1.45,1.45,0,0,1,1.16-1.69c1.6-.56,3-1.45,3.45-3.28a4,4,0,0,0,0-1.55c-.16-1-.48-2-.6-3A2.51,2.51,0,0,1,42,132.54a5,5,0,0,1,2.27-.45c2.29.2,4.36-.88,6.59-1a3.14,3.14,0,0,1,.61-.05c3,.42,5.11-1.3,7.09-3.14a24.1,24.1,0,0,0,2.73-3.15,2.59,2.59,0,0,1,3.24-1.13,7.57,7.57,0,0,0,1,.23V108c-1.08.13-2.13.34-3.19.37-1.86.06-3.73.1-5.59,0-5.08-.29-9.9-2-14.87-2.9-1.43-.26-2.89-.33-4.35-.45a1.75,1.75,0,0,0-1.12.43c.66.39,1.29.84,2,1.16,3.29,1.52,6.64,2.94,9.9,4.51A37.17,37.17,0,0,1,53.11,114c1.4,1,1.28,2.25-.3,2.87-3.88,1.52-7.82,2.9-11.75,4.3-1.6.57-3.23,1-4.91,1.57V76c.73,0,1.41,0,2.08,0,2.17-.06,4.35,0,6.5-.23,3.12-.3,4.82-1.79,5.48-4.61a4.66,4.66,0,0,0-1.73-4.83A10.81,10.81,0,0,0,42.22,64c-2-.14-4-.2-6.06-.29V40.59c1.12,0,2.17,0,3.23,0a43,43,0,0,0,10.29-1.22c.19,0,.39-.12.58-.18,2.15-.76,2.49-1.42,1.81-3.56-.63-2-1.48-3.79-3.54-4.6-2.41-.94-4.5-1.08-6.31,1.11a2.27,2.27,0,0,1-2.94.56c-.19-.08-.39-.12-.58-.2-2.2-.88-2.61-1.49-2.61-3.83,0-3.15,0-6.31,0-9.46,0-.75.12-1.17,1-1.33,4.23-.78,8.44-1.68,12.68-2.44,3.73-.67,7.56-.9,11.13-2.24a20.12,20.12,0,0,0,4-2.11c1.49-1,1.36-3.21-.27-4.9-.94-1-2-1.79-3.05-2.69-.17-.15-.32-.33-.73-.77a18.86,18.86,0,0,1,2.81-.53c2.71-.06,5.42,0,8.12,0a11.17,11.17,0,0,1,1.72.19c2.52.37,4.76-.62,7-1.47A14,14,0,0,1,86,0c2.6.07,5.21,0,7.81,0a1.42,1.42,0,0,1,1.34.67c1.82,2.53,3.58,5.13,5.6,7.5A10.29,10.29,0,0,0,108,12a9.32,9.32,0,0,1,7.13,3.94c.77,1,.46,1.82-.79,2a12.52,12.52,0,0,1-2.87,0,33.67,33.67,0,0,0-10.64.62,7.81,7.81,0,0,0-3,1.75c-1.47,1.12-3.1,2.05-4.66,3.08-.32.22-.61.5-1.11.92.7.28,1.2.52,1.71.69,3.07,1.06,6.11,2.19,9.21,3.11,2.56.77,5.24,1.11,7.75,2a20.68,20.68,0,0,1,8.34,4.77c1,.94.92,1.22,0,2.17-.34.36-.66.74-1.21,1.35,1.23.25,2.17.48,3.12.61a27.36,27.36,0,0,0,2.85.23c2.94.08,5.89,0,8.82.24a40.88,40.88,0,0,1,6.2,1,2.83,2.83,0,0,1,1.81,1.42c.15.37-.64,1.37-1.23,1.72a43.74,43.74,0,0,1-6.17,3.33c-3.73,1.5-7.56,2.74-11.36,4.08-2.68.95-5.3.25-8-.27-3.64-.72-7.3-1.38-11-1.92A55,55,0,0,0,94.85,48c-2.3,0-4.69,0-6.85,1.19-1.91,1-2,2.45-.21,3.62a21.86,21.86,0,0,0,7.52,2.72c4.55,1,9.14,1.81,13.71,2.67,4.2.79,8.38,1.62,12.59,2.29,2.72.43,5.47.61,8.21.87,4.83.47,9.73.56,14.37,2.09a68.12,68.12,0,0,1,13,5.84,52,52,0,0,1,5.09,3.54c.36.28.75,1.07.61,1.35a1.81,1.81,0,0,1-1.38.77c-2.86-.1-5.71-.29-8.56-.49-1.86-.13-3.72-.41-5.58-.45s-2.49,1-1.93,2.77a5.36,5.36,0,0,0,3.3,3.35c2.78,1.16,5.65,2.1,8.51,3.07,2.64.89,5.34,1.61,7.71,3.17a6.14,6.14,0,0,1,2.82,5.11,17.56,17.56,0,0,1-3.36,11.63,11.07,11.07,0,0,1-12.39,4.7c-7.75-1.82-15.49-3.67-23.26-5.36a49,49,0,0,0-7.56-.86c-2.31-.14-3.39,1.05-3,3.34a12.57,12.57,0,0,0,3.63,7.45,3.28,3.28,0,0,0,.56.44c1,.61,1,1.25,0,1.72a27,27,0,0,1-4.86,1.78,17.27,17.27,0,0,1-8.94-.16,12.27,12.27,0,0,1-5.55-3.48c-.67-.72-.52-1.35.41-2.41a5.78,5.78,0,0,0,.9-6.64c-.82-1.55-2.2-2-4.27-1.28-2.5.94-4.93,2.09-7.43,3.06-2.26.88-4.61,1.77-7,.74A14.76,14.76,0,0,1,82.18,104c-2.57-2-4.73-1.33-7.31-.2a1,1,0,0,0-.35.74c.1,3.11.24,6.2.36,9.3,0,.71,0,1.42,0,2.17,2.46-.72,4.78-1.44,7.13-2,1.25-.32,2.54-.44,3.81-.67,2-.36,3.54.81,5.22,1.49a33.79,33.79,0,0,1,4.26,2.12c1.46.87,1.53,1.43,1,3-.58,1.94-1.09,3.9-1.56,5.86a1.09,1.09,0,0,0,.36.91,8.37,8.37,0,0,0,4.95,1.59c3,.09,6,.12,8.79-1.36a24.06,24.06,0,0,0,2.7-1.57,4.59,4.59,0,0,1,5-.46c5.79,2.68,11.67,5.2,17.38,8.05A146.42,146.42,0,0,1,152,143.19a27.43,27.43,0,0,1,3.08,2.51,1.53,1.53,0,0,1,.41,1.32,1.64,1.64,0,0,1-1.26.78c-2.08-.21-4.17-.47-6.22-.88-2.71-.55-5.38-1.32-8.09-1.86a15.92,15.92,0,0,0-3.09,0l-.15.37a14.72,14.72,0,0,0,1.94,2c2.83,2,5.72,4,8.59,6L162,163.64c.12.07.22.16.34.23.65.4,1.24,1,1,1.72a2.34,2.34,0,0,1-1.41,1.22,32.45,32.45,0,0,1-4.7.78,34.81,34.81,0,0,1-5.1.2c-3.57-.18-7.14-.35-10.68-.8-3.83-.48-7.66-1.14-11.42-2a23.88,23.88,0,0,1-5.21-2.18c-.62-.31-1-1.06-1.56-1.57a37.48,37.48,0,0,0-6.85-5.58,6,6,0,0,0-3.82-.82c-1.22.17-1.91,1.11-2.63,2-.54.66-1,1.36-1.54,2a1.92,1.92,0,0,1-2.57.79,30.23,30.23,0,0,1-4.58-2.81,18.79,18.79,0,0,0-10.77-4,51.78,51.78,0,0,1-5.25-.61,3.75,3.75,0,0,1-1.55-.7,1.23,1.23,0,0,1-.42-1.62A11.58,11.58,0,0,1,87.61,145c1.64-1.15,3.38-2.19,4.21-4.17a9.34,9.34,0,0,0,.62-4.78c0-.38-.68-.82-1.14-1a3,3,0,0,1-1.78-2.43,17.8,17.8,0,0,1,.39-10.32c.1-.29.11-.6.22-.88A2.33,2.33,0,0,0,88,118.26a10.93,10.93,0,0,0-5.87.94c-2.05,1-4.15,1.91-6.26,2.76a1.07,1.07,0,0,0-.79,1.21c.15,3.86.27,7.71.41,11.56.11,3.1.27,6.2.38,9.3.15,4,.26,8.05.41,12.07q.18,5.11.39,10.21c.08,1.7.2,3.38.31,5.21,1.86-1.26,3.63-2.47,5.43-3.65a5.84,5.84,0,0,1,4-1.2,2.52,2.52,0,0,1,1.45.75c1.11,1.19,2,2.56,3.21,3.68,1.42,1.35,2.92,2.69,5,3,.74.12,1.5,0,2.24.14a25.15,25.15,0,0,1,3.69.62c1.91.54,2.42,1.53,2,3.46-.19.78-.39,1.57-.62,2.35a2.29,2.29,0,0,0,.77,2.44,10.94,10.94,0,0,1,1.48,1.57,1.49,1.49,0,0,1,.07,1.27c-.31.62-.74.11-1.09-.09-.73-.43-1.45-.89-2.18-1.31-1.1-.62-.72-1.77-.78-2.63-.13-1.84-.39-3.56-1.65-4.92-1.52.08-3,.22-4.48.22a6.29,6.29,0,0,1-4.91-2c-1.17-1.27-2.43-2.46-3.67-3.68a1.24,1.24,0,0,0-1.89-.06q-3.75,3.4-7.46,6.85a.78.78,0,0,0-.25.52c0,1.47.1,2.93.16,4.39,0,.14,0,.27,0,.41.07,2.56.13,5.12.21,7.68q.19,5.92.41,11.85c.12,3.16.27,6.33.4,9.49.14,3.58.27,7.15.41,10.72.13,3.1.28,6.19.4,9.29.15,3.37.27,6.74.42,10.1q.2,4.65.4,9.29c.13,3.16.27,6.33.41,9.49.12,2.93.26,5.85.39,8.77s.27,5.92.41,8.88l.39,8.06c.2,3.88.38,7.75.6,11.63.16,2.78.29,5.57.62,8.33.14,1.25-.19,2.62.85,3.77.31.34,0,1.31-.12,2-.21,1,0,1.32,1,1.39,2.55.18,3.8-1.39,4.71-3.45,1.17-2.61,2-3.07,5-2.78,1.18.11,2.38.17,3.57.18a5.52,5.52,0,0,1,4.66,2.47,36.25,36.25,0,0,1,2.48,3.58c1.16,2.07,1.18,4.39,1.17,6.69,0,.31,0,.61,0,.92l-.33,8.6a4.3,4.3,0,0,1-.16.69h-3.08c0-1.55-.1-3.11-.12-4.66,0-.38.13-.76.1-1.12-.15-1.62-.36-3.23-.5-4.85a16,16,0,0,0-2.6-7.26,3.41,3.41,0,0,0-5.49-.55c-1.63,1.64-3.16,3.38-4.81,5a9.79,9.79,0,0,1-2.28,1.53,9.2,9.2,0,0,1-2.22.8c-.86.2-1,.65-1,1.46.17,3.22.26,6.44.37,9.65ZM59,132c1.27-.14,1.19.59,1,1.15A4.78,4.78,0,0,1,59,135c-1.62,1.7-3.8,2.17-6,2.43s-4,1.41-4.32,3.08a7.25,7.25,0,0,0,.94,4.11c.35.77.75.9,1.59.75,4.64-.83,9.2-2.35,14.1-1.63v-1c0-4.24,0-8.49,0-12.74,0-.83-.2-1.49-1-1.67a2.4,2.4,0,0,0-1.77.22c-1.21,1-2.27,2.23-3.6,3.57"/><path class="cls-1" d="M.55,160.43H34.3v7l-24.22-.42-.06.23c.27.18.53.38.81.56l9.1,5.79c1.49,1,1.48,1.72,0,2.69l-9.1,5.79a1.86,1.86,0,0,0-.74.76l24.27-.43v7H.56c0-2,0-3.92,0-5.87,0-.27.39-.6.68-.79q5.31-3.6,10.65-7.18l.93-.67-2.77-1.89c-3-2-5.92-4-8.86-6-.28-.19-.63-.53-.64-.82,0-1.9,0-3.82,0-5.84"/><path class="cls-1" d="M.53,60.7c.19-5.12-.44-10.24.73-15.28,1.75-7.55,7-11.79,15-11.91a30.58,30.58,0,0,1,5.82.4c6.58,1.25,10.28,5.5,11.72,11.84a28.6,28.6,0,0,1,.59,5.39c.09,2.91,0,5.82,0,8.73,0,.59-.08,1-.83,1q-16.28,0-32.57,0a2.83,2.83,0,0,1-.47-.11m3.84-7.23H30.48c-.28-2.07-.41-4.06-.83-6A7.51,7.51,0,0,0,24,41.6a24.09,24.09,0,0,0-13.67.19,6.83,6.83,0,0,0-4.92,5.09c-.51,2.1-.66,4.3-1,6.59"/><path class="cls-1" d="M17.52,98.65a21.77,21.77,0,0,1-8.34-1.5C2.73,94.54-.5,89,.06,82.08.69,74.5,6.31,70,12.63,68.82a22.92,22.92,0,0,1,13,1,14.77,14.77,0,0,1,9.15,15.64c-.82,6.88-6.11,12.14-14.12,13-1.05.12-2.11.15-3.17.22m-.09-7.72c.86,0,1.72.06,2.57,0,2.82-.22,5.58-.67,8-2.33a6,6,0,0,0,.12-10A12.09,12.09,0,0,0,24.8,77a27.37,27.37,0,0,0-12.69-.52A11.47,11.47,0,0,0,6.17,79a6,6,0,0,0,.48,9.35,12.46,12.46,0,0,0,2.91,1.48,20.39,20.39,0,0,0,7.87,1.06"/><path class="cls-1" d="M.54,296.62C.69,291.49,0,286.38,2,281.53A9.92,9.92,0,0,1,5.54,277a7.2,7.2,0,0,1,10.09,1.82c.55.78,1,1.63,1.52,2.51,2.49-4.24,6.64-6.07,10.93-7.69l5.1-1.9,1.21-.4V277c0,1.91,0,1.9-1.76,2.58-2.68,1.05-5.37,2.05-8,3.19a17.28,17.28,0,0,0-3.35,2,5.18,5.18,0,0,0-2,4.71H34.32v7.2Zm4.2-7.3H15.07c.21-4.34-1.7-6.43-5.64-6.27-3.11.12-5.12,2.77-4.69,6.27"/><path class="cls-1" d="M34.39,302.28c0,2.25,0,4.39,0,6.54,0,.23-.44.56-.73.64-1.93.57-3.88,1.12-5.83,1.6-.71.17-.91.49-.9,1.2q.06,4.26,0,8.52a1,1,0,0,0,.9,1.22c1.95.53,3.87,1.16,5.82,1.69a.93.93,0,0,1,.8,1.08c0,2,0,4,0,6.17-.47-.12-.79-.19-1.11-.29q-16-5-32.06-10a1.05,1.05,0,0,1-.9-1.21c.06-2,0-3.91,0-5.86a.94.94,0,0,1,.78-1.09q16.19-5,32.36-10c.26-.08.52-.12.92-.22M22.76,312.6,8.83,316.46c0,.09,0,.17,0,.26l14,3.91Z"/><polygon class="cls-1" points="0.64 130.7 4.53 130.7 4.53 143.45 14.65 143.45 14.65 131.76 18.73 131.76 18.73 143.47 30.25 143.47 30.25 130.08 34.31 130.08 34.31 150.69 0.64 150.69 0.64 130.7"/><path class="cls-1" d="M4.55,108.22H34.39v3.32c0,1-.06,1.92,0,2.88s-.29,1.14-1.17,1.14c-9.11,0-18.22,0-27.33,0H4.59v5.75c0,.62,0,1.24,0,1.85.08.82-.22,1.1-1,1s-1.9,0-2.93,0V99.62H4.55Z"/><rect class="cls-1" x="0.6" y="228.65" width="33.72" height="7.12"/><rect class="cls-1" x="0.59" y="199.13" width="33.72" height="7.03"/><rect class="cls-1" x="0.62" y="258.76" width="33.71" height="7.06"/><path class="cls-1" d="M.62,25.48V18.35H1.78c10.45,0,20.89,0,31.33,0,1.07,0,1.34.3,1.3,1.32-.07,1.91,0,3.83,0,5.83Z"/><path class="cls-1" d="M.55,243c2.14,1.17,4.09,2.22,6,3.29,3.07,1.67,6.14,3.33,9.19,5a1.47,1.47,0,0,0,1.76-.08c5.28-3.31,10.58-6.58,15.88-9.87l1-.55c0,1.43,0,2.71,0,4s.32,2.54-.19,3.42-1.86,1.3-2.86,1.89c-4.43,2.59-8.87,5.17-13.29,7.79a1.66,1.66,0,0,1-1.72.08q-7.41-3.55-14.85-7a1.34,1.34,0,0,1-.95-1.45c.06-2.08,0-4.17,0-6.51"/><path class="cls-1" d="M34.39,210.77c0,2.51,0,4.79,0,7.08a1.14,1.14,0,0,1-.55.75q-8,4.72-16,9.38a1.52,1.52,0,0,1-1.22,0q-7.66-3.59-15.3-7.25c-.29-.14-.67-.49-.68-.76,0-2.28,0-4.57,0-7l1.92,1q6.72,3.66,13.42,7.35a1.25,1.25,0,0,0,1.48-.05q8-5,16-9.9c.29-.18.58-.34,1.06-.62"/></svg>