<svg id="Layer_1" data-name="Layer 1" xmlns="http://www.w3.org/2000/svg" viewBox="0 0 84 84"><defs><style>.cls-1{fill:#981918;}</style></defs><title>Artboard 17100</title><path class="cls-1" d="M15.71,65.46A7.1,7.1,0,1,1,22.8,72.8,7.09,7.09,0,0,1,15.71,65.46ZM17.3,29l-.4-10.6H28.71L28.31,29,26.63,53.42H19Z"/><path class="cls-1" d="M58.69,32c0-3.27-2.15-5-5.34-5-3,0-5.11,1.52-7.26,3.67l-6.46-5.9a20.08,20.08,0,0,1,15.23-7.26c8.54,0,15.08,4.23,15.08,13.64,0,9.89-12,12.84-11,22.33H48.64C47.05,42.49,58.69,38,58.69,32Zm-12,33.49c0-4.23,3-7.42,7-7.42a7.39,7.39,0,0,1,0,14.76A7,7,0,0,1,46.73,65.46Z"/></svg>