<svg id="Layer_1" data-name="Layer 1" xmlns="http://www.w3.org/2000/svg" viewBox="0 0 84 84"><defs><style>.cls-1{fill:#fff;stroke:#981918;stroke-miterlimit:10;}</style></defs><title>Artboard 13100</title><polygon class="cls-1" points="2.49 43.6 2.51 46.67 39.81 71.65 52.54 61.67 8.82 39.64 2.49 43.6"/><polygon class="cls-1" points="52.54 61.67 38.73 70 4.36 39.55 13.13 35.23 52.54 61.67"/><polygon class="cls-1" points="51.06 62.29 38.17 67.98 10.13 35.09 26.7 29.09 51.06 62.29"/><polygon class="cls-1" points="53.59 61.66 36.34 66.75 15.39 30.8 42.07 24.74 53.59 61.66"/><polygon class="cls-1" points="55.48 60.9 35.88 65.11 21.72 27.89 29.25 26.7 55.48 60.9"/><polygon class="cls-1" points="53.52 61.31 36.48 63.59 28.22 24.62 56.62 21.28 53.52 61.31"/><polygon class="cls-1" points="56.81 60.85 36.45 61.56 35.14 22.54 42.89 22.49 56.81 60.85"/><polygon class="cls-1" points="63.96 61.28 36.85 59.64 41.82 21.32 59.45 21.51 63.96 61.28"/><polygon class="cls-1" points="65.17 61.28 36.84 58.25 48.78 19.75 75.57 23.38 65.17 61.28"/><polygon class="cls-1" points="67 62.63 37.49 56.14 54.56 19.84 82.56 25.62 67 62.63"/></svg>