<svg id="Layer_1" data-name="Layer 1" xmlns="http://www.w3.org/2000/svg" viewBox="0 0 84 84"><defs><style>.cls-1,.cls-3{fill:#fff;}.cls-1,.cls-2{stroke:#981918;stroke-miterlimit:10;}.cls-2{fill:none;}</style></defs><title>Artboard 14100</title><path class="cls-1" d="M8.52,26.74a14,14,0,0,1,28,0h0v.46H78.2V77.12H21.61A13.13,13.13,0,0,1,8.5,64V26.74Z"/><line class="cls-1" x1="36.53" y1="26.74" x2="36.53" y2="63.05"/><path class="cls-1" d="M8.5,62.6a14.29,14.29,0,0,1,14-14.53,14.25,14.25,0,0,1,14,14.08"/><rect class="cls-2" x="41" y="32.62" width="30" height="13"/><rect class="cls-2" x="59" y="50.62" width="11" height="18"/><rect class="cls-2" x="41" y="50.62" width="14" height="18"/><rect class="cls-3" x="66.5" y="59.12" width="6" height="3"/><rect class="cls-3" x="67.5" y="38.12" width="6" height="3"/><rect class="cls-3" x="47.5" y="66.12" width="4" height="4"/><rect class="cls-3" x="47.5" y="43.12" width="4" height="4"/><rect class="cls-3" x="61.5" y="43.12" width="2" height="5"/><rect class="cls-2" x="59" y="50.62" width="11" height="18"/></svg>